<?xml version="1.0" standalone="no"?>
<!DOCTYPE svg PUBLIC "-//W3C//DTD SVG 20010904//EN"
 "http://www.w3.org/TR/2001/REC-SVG-20010904/DTD/svg10.dtd">
<svg version="1.0" xmlns="http://www.w3.org/2000/svg"
 width="876.000000pt" height="352.000000pt" viewBox="0 0 876.000000 352.000000"
 preserveAspectRatio="xMidYMid meet">
<metadata>
Created by potrace 1.15, written by Peter Selinger 2001-2017
</metadata>
<g transform="translate(0.000000,352.000000) scale(0.100000,-0.100000)"
fill="#000000" stroke="none">
<path d="M1085 3375 c116 -115 144 -293 81 -508 -30 -100 -87 -223 -122 -260
-12 -14 -20 -28 -17 -31 4 -3 1 -6 -5 -6 -7 0 -12 12 -12 28 0 22 2 24 11 12
9 -12 10 -12 5 3 -3 10 -6 21 -6 23 0 2 -4 4 -10 4 -5 0 -10 -7 -10 -16 0 -9
-6 -22 -13 -28 -13 -11 -213 -306 -336 -498 -60 -92 -63 -100 -48 -116 11 -10
17 -12 17 -4 0 7 -4 12 -10 12 -5 0 -10 3 -10 8 0 13 230 15 245 2 8 -7 19 -9
24 -6 14 9 103 -13 122 -30 11 -10 26 -13 43 -8 23 5 25 4 19 -12 -6 -16 -4
-17 8 -7 13 10 21 5 50 -28 50 -60 52 -62 76 -82 21 -18 21 -18 91 120 87 173
154 326 156 357 0 13 5 22 10 18 5 -3 7 2 3 11 -3 9 -1 17 4 19 5 2 11 14 13
28 2 14 6 32 9 40 2 8 12 37 22 63 9 27 14 59 11 72 -4 15 -2 25 4 25 6 0 8 5
5 10 -4 6 -1 18 6 26 9 11 9 20 0 42 -7 14 -9 28 -4 29 4 2 7 30 5 62 -1 34 2
63 8 66 7 4 7 11 2 18 -14 17 -25 90 -14 83 12 -7 -11 85 -34 137 -9 20 -21
37 -26 37 -5 0 -6 5 -3 10 3 6 1 10 -4 10 -6 0 -11 7 -11 16 0 21 -91 125
-103 117 -6 -3 -7 -1 -3 5 10 17 -137 110 -242 151 l-51 20 44 -44z"/>
<path d="M1873 2570 c-62 -35 -155 -136 -188 -205 -50 -102 -67 -257 -45 -424
7 -52 7 -77 -1 -81 -16 -10 -25 -90 -10 -90 7 0 9 -5 6 -10 -11 -17 59 -185
126 -305 92 -165 124 -231 158 -329 109 -309 63 -615 -123 -813 -79 -85 -144
-131 -240 -170 -93 -37 -85 -41 29 -13 197 47 367 149 513 305 79 84 134 166
188 279 107 228 129 475 63 716 -28 100 -118 284 -221 450 -119 191 -153 255
-182 340 -33 100 -41 189 -27 290 7 45 11 84 9 86 -2 2 -27 -10 -55 -26z"/>
<path d="M384 1663 l-58 -118 -4 -135 c-4 -157 9 -239 59 -352 37 -85 86 -160
155 -238 27 -30 40 -48 30 -40 -18 13 -19 13 -14 -1 5 -13 1 -15 -20 -11 -15
3 -33 9 -39 15 -9 6 -13 6 -13 -2 0 -13 -30 -14 -62 -2 -13 5 -27 9 -32 9 -5
0 -13 6 -17 14 -7 11 -9 11 -9 -1 0 -8 -7 -4 -18 10 -15 17 -21 19 -27 9 -5
-8 -4 -11 2 -7 6 4 14 0 17 -9 8 -22 8 -26 -4 -19 -13 8 11 -58 45 -126 114
-224 333 -412 580 -496 39 -13 111 -29 161 -35 119 -15 232 5 354 64 119 57
239 177 298 298 58 116 75 205 69 350 -6 137 -35 240 -104 370 -47 89 -132
207 -179 250 l-27 25 16 -30 c52 -96 71 -225 47 -326 -67 -287 -374 -511 -665
-485 -123 11 -115 2 -115 126 0 121 18 238 55 355 13 44 25 83 25 86 0 3 -43
53 -96 110 -110 120 -226 270 -292 382 -26 42 -50 77 -54 77 -3 0 -32 -53 -64
-117z"/>
<path d="M3434 468 c-69 -150 -94 -195 -116 -207 -15 -9 -28 -19 -28 -23 0 -5
34 -8 75 -8 43 0 75 4 75 10 0 6 -6 10 -14 10 -28 0 -39 27 -26 65 l12 35 97
0 c96 0 97 0 114 -29 23 -38 22 -62 -3 -68 -47 -12 -13 -23 75 -23 91 0 123
11 71 24 -20 5 -44 44 -126 206 -56 110 -105 200 -109 200 -4 0 -48 -86 -97
-192z"/>
<path d="M5480 645 c-58 -18 -115 -66 -141 -118 -17 -32 -20 -54 -17 -103 5
-84 38 -133 115 -171 51 -24 69 -28 148 -28 61 0 107 6 143 18 l52 19 0 68 c0
70 14 100 46 100 8 0 14 5 14 10 0 6 -42 10 -105 10 -58 0 -105 -4 -105 -9 0
-5 10 -11 22 -13 30 -4 48 -42 48 -101 0 -46 -2 -49 -37 -64 -79 -32 -180 2
-221 77 -74 133 5 290 145 290 49 0 111 -36 141 -80 13 -19 27 -36 32 -38 9
-3 2 138 -7 148 -3 3 -11 -4 -19 -15 -14 -19 -16 -19 -78 -2 -76 20 -115 21
-176 2z"/>
<path d="M6029 647 c-57 -21 -97 -54 -126 -104 -58 -99 -23 -223 81 -288 44
-27 58 -30 126 -30 68 0 82 3 126 30 188 117 116 387 -108 401 -38 3 -77 -1
-99 -9z m148 -37 c51 -31 67 -72 67 -170 0 -98 -16 -139 -67 -170 -63 -39
-147 -15 -184 52 -13 24 -18 55 -18 118 0 63 5 94 18 118 23 42 72 72 117 72
19 0 49 -9 67 -20z"/>
<path d="M8365 646 c-45 -20 -67 -50 -67 -92 0 -52 26 -81 123 -139 97 -58
121 -91 95 -130 -18 -28 -54 -40 -90 -31 -33 8 -83 52 -102 87 -24 47 -34 34
-34 -46 0 -41 3 -75 7 -75 3 0 15 8 25 17 17 15 22 15 72 0 65 -21 96 -21 141
-3 48 20 77 70 71 120 -6 52 -47 92 -146 145 -88 47 -107 75 -75 111 29 32 78
26 125 -16 21 -19 42 -44 45 -55 13 -40 25 -16 25 51 0 69 -5 81 -27 59 -9 -9
-23 -9 -57 0 -58 14 -94 13 -131 -3z"/>
<path d="M2390 640 c0 -5 11 -10 24 -10 51 0 56 -18 56 -190 0 -172 -5 -190
-56 -190 -13 0 -24 -4 -24 -10 0 -6 48 -10 125 -10 71 0 125 4 125 9 0 6 -15
11 -32 13 -43 4 -58 35 -58 121 l0 68 77 -3 c75 -3 78 -4 93 -33 l15 -30 3 43
c2 23 2 59 0 80 l-3 37 -15 -30 c-15 -29 -18 -30 -93 -33 l-77 -3 0 76 0 75
91 0 c99 0 125 -9 139 -46 12 -31 35 -32 26 -1 -3 12 -6 34 -6 50 l0 27 -205
0 c-130 0 -205 -4 -205 -10z"/>
<path d="M2850 640 c0 -5 9 -10 19 -10 45 0 51 -21 51 -190 0 -172 -5 -190
-56 -190 -13 0 -24 -4 -24 -10 0 -6 71 -10 194 -10 l194 0 16 47 c9 26 16 50
16 55 0 17 -19 7 -25 -13 -13 -39 -63 -59 -147 -59 -95 0 -91 -10 -86 199 3
162 6 171 56 171 12 0 22 5 22 10 0 6 -45 10 -115 10 -70 0 -115 -4 -115 -10z"/>
<path d="M3830 641 c0 -5 10 -11 22 -13 38 -5 48 -42 48 -188 0 -146 -10 -183
-48 -188 -12 -2 -22 -8 -22 -13 0 -5 36 -9 80 -9 47 0 80 4 80 10 0 6 -8 10
-18 10 -37 0 -42 19 -42 175 l0 150 85 -172 c46 -95 88 -173 93 -173 5 0 44
75 86 168 43 92 83 172 88 177 6 6 8 -48 6 -148 -3 -168 -6 -177 -55 -177 -13
0 -23 -4 -23 -10 0 -6 45 -10 115 -10 70 0 115 4 115 10 0 6 -9 10 -19 10 -45
0 -51 21 -51 190 0 169 6 190 51 190 10 0 19 5 19 10 0 6 -33 10 -80 10 l-80
0 -24 -52 c-13 -29 -45 -98 -71 -153 l-48 -100 -75 153 -74 152 -79 0 c-44 0
-79 -4 -79 -9z"/>
<path d="M4480 640 c0 -5 11 -10 24 -10 51 0 56 -18 56 -190 0 -172 -5 -190
-56 -190 -13 0 -24 -4 -24 -10 0 -6 47 -10 120 -10 68 0 120 4 120 9 0 5 -12
11 -27 13 -44 5 -53 37 -53 188 0 151 9 183 53 188 15 2 27 8 27 13 0 5 -52 9
-120 9 -73 0 -120 -4 -120 -10z"/>
<path d="M4750 642 c0 -5 16 -16 35 -25 l35 -17 0 -163 c0 -173 -4 -187 -47
-187 -13 0 -23 -4 -23 -10 0 -6 37 -10 90 -10 50 0 90 4 90 9 0 5 -12 11 -27
13 -43 5 -53 37 -53 176 0 67 3 122 8 122 4 0 79 -72 167 -160 88 -88 163
-160 167 -160 5 0 8 85 8 188 0 199 3 212 47 212 13 0 23 5 23 10 0 6 -37 10
-90 10 -53 0 -90 -4 -90 -10 0 -5 11 -10 24 -10 48 0 56 -21 56 -148 l0 -117
-143 143 -142 142 -68 0 c-37 0 -67 -4 -67 -8z"/>
<path d="M6560 640 c0 -5 9 -10 19 -10 45 0 51 -21 51 -190 0 -172 -5 -190
-56 -190 -13 0 -24 -4 -24 -10 0 -6 71 -10 194 -10 l194 0 16 47 c9 26 16 50
16 55 0 17 -19 7 -25 -13 -13 -39 -63 -59 -147 -59 -95 0 -91 -10 -86 199 3
162 6 171 56 171 12 0 22 5 22 10 0 6 -45 10 -115 10 -70 0 -115 -4 -115 -10z"/>
<path d="M7000 640 c0 -5 11 -10 24 -10 51 0 56 -18 56 -190 0 -172 -5 -190
-56 -190 -13 0 -24 -4 -24 -10 0 -6 47 -10 120 -10 68 0 120 4 120 9 0 5 -12
11 -27 13 -44 5 -53 37 -53 188 0 151 9 183 53 188 15 2 27 8 27 13 0 5 -52 9
-120 9 -73 0 -120 -4 -120 -10z"/>
<path d="M7270 642 c0 -5 16 -16 35 -25 l35 -17 0 -163 c0 -173 -4 -187 -47
-187 -13 0 -23 -4 -23 -10 0 -6 37 -10 90 -10 50 0 90 4 90 9 0 5 -12 11 -27
13 -43 5 -53 37 -53 176 0 67 3 122 8 122 4 0 79 -72 167 -160 88 -88 163
-160 167 -160 5 0 8 85 8 188 0 199 3 212 47 212 13 0 23 5 23 10 0 6 -37 10
-90 10 -53 0 -90 -4 -90 -10 0 -5 11 -10 24 -10 48 0 56 -21 56 -148 l0 -117
-143 143 -142 142 -68 0 c-37 0 -67 -4 -67 -8z"/>
<path d="M7820 640 c0 -5 8 -10 18 -10 38 0 42 -18 42 -190 0 -172 -4 -190
-42 -190 -10 0 -18 -4 -18 -10 0 -6 72 -10 195 -10 l194 0 17 56 c9 30 13 59
9 62 -4 4 -10 0 -13 -8 -3 -8 -20 -30 -38 -48 -33 -33 -33 -33 -121 -30 l-88
3 -3 88 -3 87 74 0 c75 0 97 -9 97 -42 0 -10 5 -18 10 -18 6 0 10 32 10 75 0
43 -4 75 -10 75 -5 0 -10 -8 -10 -18 0 -33 -22 -42 -97 -42 l-73 0 0 75 0 75
80 0 c73 0 83 -3 105 -25 14 -13 25 -29 25 -35 0 -5 5 -10 10 -10 6 0 10 23
10 50 l0 50 -190 0 c-120 0 -190 -4 -190 -10z"/>
</g>
</svg>
